<?xml version="1.0" encoding="UTF-8" standalone="no"?>
<!DOCTYPE svg PUBLIC "-//W3C//DTD SVG 1.1//EN" "http://www.w3.org/Graphics/SVG/1.1/DTD/svg11.dtd">
<svg xmlns="http://www.w3.org/2000/svg" xmlns:xlink="http://www.w3.org/1999/xlink" version="1.1" width="1041.6666pt" height="1041.6666pt" viewBox="0 0 1041.6666 1041.6666">
<g enable-background="new">
<clipPath id="cp0">
<path transform="matrix(.6666666,0,0,.6666666,0,0)" d="M 0 0 L 1562.5 0 L 1562.5 1562.5 L 0 1562.5 Z " fill-rule="evenodd"/>
</clipPath>
<g clip-path="url(#cp0)">
<path transform="matrix(2.0833333,0,0,2.0833333,0,0)" d="M 0 0 L 500 0 L 500 500 L 0 500 Z " fill="#ffffff"/>
</g>
<clipPath id="cp1">
<path transform="matrix(.6666666,0,0,.6666666,0,0)" d="M 0 0 L 1562.5 0 L 1562.5 1562.5 L 0 1562.5 Z " fill-rule="evenodd"/>
</clipPath>
<g clip-path="url(#cp1)">
<path transform="matrix(2.0833333,0,0,2.0833333,0,0)" d="M 0 0 L 500 0 L 500 500 L 0 500 Z " fill="#ffffff"/>
</g>
<clipPath id="cp2">
<path transform="matrix(.6666666,0,0,.6666666,0,0)" d="M 0 0 L 1562.5 0 L 1562.5 1562.5 L 0 1562.5 Z " fill-rule="evenodd"/>
</clipPath>
<g clip-path="url(#cp2)">
<g id="Layer-1" data-name="H1">
<g id="Layer-2" data-name="P">
</g>
<symbol id="font_3_33">
<path d="M 0 .82500007 L .30100004 .82500007 C .38500003 .82500007 .45299999 .80333337 .505 .76000007 C .557 .7166667 .583 .65366676 .583 .57100006 C .583 .48833338 .5566667 .42333339 .504 .37600003 C .45133338 .32933335 .38366667 .30600003 .30100004 .30600003 L .18800001 .30600003 L .18800001 0 L 0 0 L 0 .82500007 M .18800001 .45600004 L .24100003 .45600004 C .28300003 .456 .31733335 .4643334 .344 .48100005 C .37133337 .49833337 .38500003 .52633336 .38500003 .565 C .38500003 .60433337 .37133337 .63233336 .344 .64900007 C .31733335 .6663334 .28300003 .675 .24100003 .675 L .18800001 .675 L .18800001 .45600004 Z "/>
</symbol>
<symbol id="font_3_55">
<path d="M 0 0 L 0 .513 L .17700002 .513 L .17700002 .439 L .179 .439 C .18033333 .4416667 .18233335 .44500003 .185 .44900004 C .18833333 .45300005 .19500001 .46000005 .20500002 .47000004 C .21499999 .48000003 .22566669 .489 .23700002 .497 C .24833334 .505 .263 .512 .28100003 .518 C .29900003 .52466669 .31733338 .528 .33600004 .528 C .35533334 .528 .37433336 .52533337 .393 .52000007 C .41166673 .51466676 .42533336 .5093334 .43400003 .504 L .448 .49600003 L .374 .34600003 C .352 .3646667 .32133336 .37399999 .282 .374 C .26066668 .37399999 .24233334 .36933337 .227 .36 C .21166666 .35066668 .20066667 .33933334 .194 .326 C .18800001 .31266669 .18366666 .30133335 .18100001 .29200004 C .17833334 .28266669 .177 .27533338 .17700002 .27 L .17700002 0 L 0 0 Z "/>
</symbol>
<symbol id="font_3_52">
<path d="M .085 .076000008 C .028333335 .12666668 0 .19166668 0 .27100004 C 0 .35033337 .029666668 .41533337 .089 .46600003 C .14833333 .5173333 .22166668 .543 .30900003 .543 C .395 .543 .46733336 .5173333 .526 .46600003 C .58533337 .41466666 .615 .34966669 .615 .27100004 C .615 .19233334 .586 .12733335 .528 .076000008 C .47066669 .025333336 .3976667 0 .30900003 0 C .21700001 0 .14233335 .025333336 .085 .076000008 M .222 .35800005 C .19933336 .33533336 .18800001 .30633334 .18800001 .27100004 C .18800001 .23566668 .199 .20666667 .22100002 .18400002 C .24300002 .16200002 .272 .15100001 .30800004 .15100001 C .34266673 .15100001 .37100003 .16233334 .393 .185 C .41566668 .20766668 .42700003 .23633336 .42700003 .27100004 C .42700003 .30633334 .41533337 .33533336 .39200003 .35800005 C .36933337 .3806667 .34133337 .39200006 .30800004 .39200003 C .27400003 .39200006 .24533333 .3806667 .222 .35800005 Z "/>
</symbol>
<use xlink:href="#font_3_33" transform="matrix(255.8453,0,0,-255.8453,92.71651,590.12069)"/>
<use xlink:href="#font_3_55" transform="matrix(255.8453,0,0,-255.8453,262.81788,590.12069)"/>
<use xlink:href="#font_3_52" transform="matrix(255.8453,0,0,-255.8453,380.47996,593.9584)"/>
<g id="Layer-2" data-name="P">
</g>
<symbol id="font_3_50">
<path d="M 0 0 L 0 .513 L .17700002 .513 L .17700002 .45900003 L .179 .45900003 C .22500003 .505 .27400003 .528 .326 .528 C .36333335 .528 .39833335 .52033337 .43100003 .505 C .46366669 .4896667 .48833335 .466 .505 .43400003 C .557 .49666668 .6136667 .528 .675 .528 C .7296667 .528 .7766667 .51266667 .81600007 .48200003 C .8553334 .45133338 .87500008 .40333335 .87500008 .33800004 L .87500008 0 L .698 0 L .698 .29000003 C .698 .31733338 .69033339 .34000004 .675 .358 C .6603334 .37666667 .6380001 .386 .60800006 .386 C .582 .386 .56200006 .37800003 .54800006 .36200003 C .5346667 .3466667 .5273333 .32800005 .526 .30600003 L .526 0 L .349 0 L .349 .29000003 C .349 .31733338 .34133337 .34000004 .326 .358 C .31133334 .37666667 .289 .386 .259 .386 C .23166669 .386 .21100001 .3773333 .197 .36 C .18366666 .34333334 .177 .32333336 .17700002 .3 L .17700002 0 L 0 0 Z "/>
</symbol>
<use xlink:href="#font_3_50" transform="matrix(255.8453,0,0,-255.8453,558.8084,590.12069)" fill="#5e17eb"/>
<use xlink:href="#font_3_52" transform="matrix(255.8453,0,0,-255.8453,801.0411,593.9584)" fill="#5e17eb"/>
</g>
<g id="Layer-1" data-name="P">
<g id="Layer-2" data-name="P">
</g>
<symbol id="font_4_1ad">
<path d="M .19700001 .43100003 L .19700001 .133 C .19700001 .09966668 .21200001 .083000008 .24200002 .083000008 C .24666667 .083000008 .25300003 .084 .261 .086 C .26900003 .08866667 .27533333 .09 .28 .09 C .2886667 .09 .296 .086333338 .30200003 .079 C .308 .071666669 .31100003 .062333336 .31100003 .051000004 C .31100003 .037 .303 .025 .287 .015000001 C .271 .0050000005 .25300003 0 .23300001 0 C .21100001 0 .19066668 .0023333335 .172 .007 C .154 .011666667 .13766669 .023333336 .12300001 .042000005 C .109000008 .06133334 .102000009 .09033334 .102000009 .12900001 L .102000009 .43100003 L .044 .43100003 C .03133333 .43100003 .020666667 .43500004 .012 .44300003 C .004 .45166669 0 .46233336 0 .47500003 C 0 .4876667 .004 .49800004 .012 .50600007 C .020666667 .514 .03133333 .518 .044 .518 L .102000009 .518 L .102000009 .60200008 C .102000009 .6153334 .10633334 .6266667 .11500001 .63600006 C .124333348 .64533337 .136 .65000006 .15 .65000006 C .16333334 .65000006 .17433334 .64533337 .18300002 .63600006 C .19233334 .6266667 .19700001 .6153334 .19700001 .60200008 L .19700001 .518 L .28 .518 C .29266668 .518 .303 .5136667 .31100003 .505 C .31966666 .497 .324 .48666669 .324 .47400005 C .324 .46133337 .31966666 .451 .31100003 .44300003 C .303 .43500004 .29266668 .43100003 .28 .43100003 L .19700001 .43100003 Z "/>
</symbol>
<symbol id="font_4_1b5">
<path d="M .39000003 .53300008 C .404 .53300008 .41533337 .52833339 .42400003 .51900008 C .4333333 .5096667 .438 .49833334 .438 .485 L .438 .21900001 C .438 .14966668 .4186667 .09566668 .38000003 .057 C .342 .019 .28800003 0 .218 0 C .14866667 0 .095 .019 .057000005 .057 C .019000002 .09566668 0 .14966668 0 .21900001 L 0 .485 C 0 .49833334 .0043333347 .5096667 .013000004 .51900008 C .022333337 .52833339 .03366667 .53300008 .047000007 .53300008 C .061000009 .53300008 .07233334 .52833339 .08100001 .51900008 C .09033334 .5096667 .095000009 .49833334 .095000009 .485 L .095000009 .21900001 C .095000009 .13166668 .13599999 .08800001 .218 .08800001 C .25866667 .08800001 .28966669 .09900001 .31100003 .12100001 C .33233337 .143 .34300003 .17566669 .34300003 .21900001 L .34300003 .485 C .34300003 .49833334 .34733335 .5096667 .356 .51900008 C .36533333 .52833339 .37666667 .53300008 .39000003 .53300008 Z "/>
</symbol>
<symbol id="font_4_166">
<path d="M .26700003 .536 C .387 .536 .447 .46400003 .447 .32000003 L .447 .048 C .447 .03466667 .44233335 .023333334 .433 .014 C .42433334 .004666667 .41300003 0 .39900003 0 C .3856667 0 .37433336 .004666667 .365 .014 C .35633336 .023333334 .352 .03466667 .352 .048 L .352 .319 C .352 .35833336 .34300003 .38966669 .32500003 .41300003 C .307 .43633334 .2776667 .44800005 .23700002 .448 C .21033335 .44800005 .18599999 .442 .164 .43 C .14266667 .4186667 .12566667 .40300004 .11300001 .38300003 C .10100001 .36366669 .095000009 .34233333 .095000009 .319 L .095000009 .048 C .095000009 .03466667 .09033334 .023333334 .08100001 .014 C .07233334 .004666667 .061000009 0 .047000007 0 C .033000005 0 .021666669 .0043333338 .013000004 .013 C .0043333347 .022333334 0 .033999999 0 .048 L 0 .476 C 0 .48933337 .0043333347 .5006667 .013000004 .51000007 C .022333337 .51933339 .03366667 .52400007 .047000007 .52400007 C .061000009 .52400007 .07233334 .51933339 .08100001 .51000007 C .09033334 .5006667 .095000009 .48933337 .095000009 .476 L .095000009 .441 C .112333338 .46766673 .13633333 .49 .167 .508 C .19833334 .5266667 .23166669 .536 .26700003 .536 Z "/>
</symbol>
<symbol id="font_4_143">
<path d="M .10200001 .048 C .10200002 .03466667 .09733334 .023333334 .088 .014 C .079333338 .004666667 .068 0 .054 0 C .040666667 0 .029333333 .004666667 .02 .014 C .011333331 .023333334 .0069999957 .03466667 .0069999957 .048 L .0069999957 .48100005 C .0069999957 .4943334 .011333331 .50566676 .02 .51500007 C .029333333 .5243334 .040666667 .52900007 .054 .52900007 C .068 .52900007 .079333338 .5243334 .088 .51500007 C .09733334 .50566676 .10200002 .4943334 .10200001 .48100005 L .10200001 .048 M .054 .595 C .03466667 .595 .020666669 .59833338 .011999998 .605 C .0039999994 .61233338 0 .6236667 0 .63900008 L 0 .65500006 C 0 .671 .0043333338 .6823333 .013 .689 C .022333334 .69566676 .036333335 .69900009 .055000005 .69900009 C .07366667 .69900009 .08700001 .6953334 .09500001 .688 C .103666689 .68133339 .10800001 .6703334 .10800001 .65500006 L .10800001 .63900008 C .10800001 .623 .103666689 .6116667 .09500001 .605 C .086333338 .59833338 .07266667 .595 .054 .595 Z "/>
</symbol>
<symbol id="font_4_1a1">
<path d="M .009 .092 C .0029999999 .10133333 0 .11033333 0 .119 C 0 .13233334 .0070000009 .14366669 .021000002 .15300001 C .027666668 .15766669 .035333337 .16000001 .044000005 .16000001 C .056000007 .16000001 .067 .15500002 .07700001 .14500001 C .097 .12233334 .11833334 .105333339 .141 .094000007 C .16433333 .082666669 .19199999 .077 .224 .077 C .24933334 .07766667 .27166669 .083333339 .291 .094000007 C .31033335 .105333339 .32000003 .123333338 .32000003 .14800002 C .32000003 .17066668 .31000004 .18800001 .29000003 .20000002 C .2706667 .21200001 .242 .223 .20400001 .23300001 C .16666667 .24300002 .13566667 .25333334 .111 .264 C .086333338 .27533335 .06533334 .29133336 .048000006 .312 C .03133334 .33333335 .023000002 .36100004 .023000002 .395 C .023000002 .42499999 .03133334 .4513333 .048000006 .474 C .06533334 .49666668 .088 .5143333 .116 .527 C .14466667 .53966668 .17566668 .546 .209 .546 C .241 .546 .27266667 .54 .30400003 .528 C .336 .516 .362 .4976667 .38200004 .47300003 C .39000003 .46366669 .39400003 .454 .39400003 .444 C .39400003 .4333333 .38866673 .423 .37800003 .41300003 C .37133337 .40700004 .363 .404 .35300002 .404 C .341 .404 .33133335 .408 .324 .416 C .31 .432 .29266668 .4443333 .272 .453 C .252 .46166668 .22966667 .466 .20500002 .46600003 C .17966669 .466 .158 .4606667 .14 .45000003 C .12266668 .44000004 .114 .42266668 .11400001 .398 C .11466666 .3746667 .12466667 .35733334 .14400001 .34600003 C .16400002 .33466665 .19433336 .32366667 .23500002 .313 C .27033336 .30366669 .29966668 .29366667 .323 .283 C .34633336 .27233333 .36600004 .25633333 .38200004 .23500002 C .398 .21433334 .40600003 .18700002 .40600003 .15300001 C .40600003 .12166667 .39699999 .09433333 .379 .071 C .36099998 .048333337 .33733333 .030666667 .308 .018000002 C .27933336 .0060000007 .24866669 0 .216 0 C .17400001 0 .135 .007333333 .09900001 .022 C .06366667 .03666667 .033666668 .060000004 .009 .092 Z "/>
</symbol>
<symbol id="font_4_11e">
<path d="M .492 .292 C .49133338 .28 .48633338 .26966668 .47700004 .261 C .46766673 .25300003 .4566667 .24900002 .444 .24900002 L .09200001 .24900002 C .09666667 .20033336 .11500001 .16133334 .147 .13200002 C .17966669 .102666679 .21933334 .088 .266 .088 C .298 .088 .324 .09266666 .344 .102000009 C .364 .11133334 .38166667 .123333338 .397 .13800001 C .40700004 .14400001 .41666673 .14700002 .42600004 .14700002 C .43733336 .14700002 .4466667 .143 .45400004 .135 C .462 .127 .466 .11766667 .466 .107 C .466 .093 .45933334 .08033334 .446 .069000009 C .4266667 .049666674 .40100003 .033333336 .36900003 .020000002 C .337 .0066666675 .30433334 0 .271 0 C .21700001 0 .16933334 .011333334 .128 .034 C .087333347 .056666674 .05566667 .08833334 .033000005 .12900001 C .011000001 .1696667 0 .21566667 0 .267 C 0 .32299999 .011333335 .372 .034000007 .414 C .05733334 .45666669 .08766667 .48933337 .125 .512 C .163 .5346667 .20366669 .546 .24700001 .546 C .28966669 .546 .3296667 .535 .367 .513 C .40433336 .49100004 .43433333 .4606667 .45700003 .42200003 C .4796667 .38333334 .49133338 .34 .492 .292 M .24700001 .458 C .20966667 .45800004 .17733334 .44733335 .15 .426 C .122666668 .40533338 .10466667 .373 .096 .329 L .391 .329 L .391 .337 C .38766668 .37233339 .37166668 .40133334 .34300003 .42400003 C .31500004 .4466667 .283 .45800004 .24700001 .458 Z "/>
</symbol>
<use xlink:href="#font_4_1ad" transform="matrix(51.483808,0,0,-51.483808,342.40058,659.4444)"/>
<use xlink:href="#font_4_1b5" transform="matrix(51.483808,0,0,-51.483808,398.3623,659.9078)"/>
<use xlink:href="#font_4_166" transform="matrix(51.483808,0,0,-51.483808,461.78489,659.4444)"/>
<use xlink:href="#font_4_143" transform="matrix(51.483808,0,0,-51.483808,525.0528,659.4444)"/>
<use xlink:href="#font_4_1a1" transform="matrix(51.483808,0,0,-51.483808,568.919,659.9592)"/>
<use xlink:href="#font_4_143" transform="matrix(51.483808,0,0,-51.483808,628.431,659.4444)"/>
<use xlink:href="#font_4_11e" transform="matrix(51.483808,0,0,-51.483808,672.65768,659.9592)"/>
</g>
</g>
</g>
</svg>
